<?xml version="1.0" encoding="utf-8"?>
<!-- Generator: Adobe Illustrator 28.1.0, SVG Export Plug-In . SVG Version: 6.00 Build 0)  -->
<svg version="1.1" id="Layer_1" xmlns="http://www.w3.org/2000/svg" xmlns:xlink="http://www.w3.org/1999/xlink" x="0px" y="0px"
	 viewBox="0 0 50 50" style="enable-background:new 0 0 50 50;" xml:space="preserve">
<style type="text/css">
	.st0{fill:#2B2D29;}
</style>
<path class="st0" d="M0,0v50h50V0H0z M38,32.3c0,1.3-1.1,2.4-2.4,2.4H14.4c-1.3,0-2.4-1.1-2.4-2.4V21.9c0-0.3,0.3-0.4,0.5-0.2
	c1.1,0.9,2.6,2,7.8,5.8c1.1,0.8,2.9,2.4,4.7,2.4c1.8,0,3.7-1.7,4.7-2.4c5.2-3.8,6.7-4.9,7.8-5.8c0.2-0.2,0.5,0,0.5,0.2V32.3z
	 M38,18.7c0,0.4-0.2,0.7-0.5,1c-1.6,1.2-2.1,1.6-8.8,6.5c-0.9,0.6-2.5,2.1-3.7,2.1c-1.2,0-2.9-1.5-3.7-2.1c-6.7-4.9-7.3-5.3-8.8-6.5
	c-0.3-0.2-0.5-0.6-0.5-1v-1c0-1.3,1.1-2.4,2.4-2.4h21.1c1.3,0,2.4,1.1,2.4,2.4V18.7z"/>
</svg>
