<?xml version="1.0" encoding="utf-8"?>
<!-- Generator: Adobe Illustrator 28.1.0, SVG Export Plug-In . SVG Version: 6.00 Build 0)  -->
<svg version="1.1" id="Layer_1" xmlns="http://www.w3.org/2000/svg" xmlns:xlink="http://www.w3.org/1999/xlink" x="0px" y="0px"
	 viewBox="0 0 50 50" style="enable-background:new 0 0 50 50;" xml:space="preserve">
<style type="text/css">
	.st0{fill:#2B2D29;}
</style>
<g>
	<ellipse transform="matrix(0.3827 -0.9239 0.9239 0.3827 -6.2977 35.6969)" class="st0" cx="23.6" cy="22.6" rx="6.5" ry="6.5"/>
	<path class="st0" d="M0,0v50h50V0H0z M38.6,36.2l-1.4,1.4c-0.5,0.5-1.2,0.5-1.7,0l-5.1-5.1c-0.2-0.2-0.4-0.5-0.4-0.9v-0.8
		c-1.8,1.4-4,2.2-6.5,2.2c-5.8,0-10.6-4.7-10.6-10.6S17.7,12,23.6,12c5.8,0,10.6,4.7,10.6,10.6c0,2.5-0.8,4.7-2.2,6.5h0.8
		c0.3,0,0.6,0.1,0.9,0.4l5.1,5.1C39.1,35,39.1,35.7,38.6,36.2z"/>
</g>
</svg>
