<?xml version="1.0" encoding="utf-8"?>
<!-- Generator: Adobe Illustrator 21.1.0, SVG Export Plug-In . SVG Version: 6.00 Build 0)  -->
<svg version="1.1" id="レイヤー_1" xmlns="http://www.w3.org/2000/svg" xmlns:xlink="http://www.w3.org/1999/xlink" x="0px"
	 y="0px" viewBox="0 0 60 60" style="enable-background:new 0 0 60 60;" xml:space="preserve">
<style type="text/css">
	.st0{fill:#9C7938;}
</style>
<path class="st0" d="M43,41c-0.3,0-0.5-0.1-0.7-0.3L30,28.4L17.7,40.7c-0.4,0.4-1,0.4-1.4,0s-0.4-1,0-1.4l13-13c0.4-0.4,1-0.4,1.4,0
	l13,13c0.4,0.4,0.4,1,0,1.4C43.5,40.9,43.3,41,43,41z"/>
<path class="st0" d="M44,25H16c-0.6,0-1-0.4-1-1s0.4-1,1-1h28c0.6,0,1,0.4,1,1S44.6,25,44,25z"/>
</svg>
