<?xml version="1.0" encoding="UTF-8"?>
<svg xmlns="http://www.w3.org/2000/svg" version="1.1" viewBox="0 0 600 190">
  <defs>
    <style>
      .cls-1 {
        fill: #f5aa00;
      }

      .cls-2 {
        fill: #fff;
      }

      .cls-3 {
        fill: #004da0;
      }
    </style>
  </defs>
  <!-- Generator: Adobe Illustrator 28.6.0, SVG Export Plug-In . SVG Version: 1.2.0 Build 709)  -->
  <g>
    <g id="_レイヤー_1" data-name="レイヤー_1">
      <g id="_レイヤー_1-2" data-name="_レイヤー_1">
        <rect class="cls-3" width="600" height="190"/>
        <path class="cls-2" d="M239.5,47.5h-27.9c-1.2,0-2.1,1-2.1,2.1v51.6c0,1.2,1,2.1,2.1,2.1h27.9c1.2,0,2.1-1,2.1-2.1v-51.6c0-1.2-1-2.1-2.1-2.1Z"/>
        <path class="cls-2" d="M298,47.5h-27.9c-1.2,0-2.1,1-2.1,2.1v97.4c0,1.2,1,2.1,2.1,2.1h27.9c1.2,0,2.1-1,2.1-2.1V49.6c0-1.2-1-2.1-2.1-2.1Z"/>
        <path class="cls-2" d="M431.7,49.6c0-1.2-1-2.1-2.1-2.1h-109.8c-1.2,0-2.1,1-2.1,2.1v27.9c0,1.2,1,2.1,2.1,2.1h62c1.2,0,2.1,1,2.1,2.1s0,.6-.2.8h0l-4.9,12.2h0c-.3.8-1.1,1.3-2,1.3h-29c-1.2,0-2.1,1-2.1,2.1s0,.5.1.7h0l18.3,48.7h0c.3.8,1.1,1.4,2,1.4h30.4c1.2,0,2.1-1,2.1-2.1s0-.5-.1-.7h0v-.2h0l-12.3-32.6h0c0-.2-.1-.5-.1-.8,0-1.2,1-2.1,2.1-2.1h17.8c.9,0,1.6-.6,2-1.3h0l23.5-58.9h0c.1-.3.2-.6.2-.9v.3Z"/>
        <path class="cls-2" d="M557.1,49.6c0-1.2-1-2.1-2.1-2.1h-104.9c-1.2,0-2.1,1-2.1,2.1v27.9c0,1.2,1,2.1,2.1,2.1h33.9c1.2,0,2.1,1,2.1,2.1h0v2c0,1.2-1,2.1-2.1,2.1h-33.9c-1.2,0-2.1,1-2.1,2.1v27.9c0,1.2,1,2.1,2.1,2.1h30.7c1.1,0,1.9.9,1.9,1.9s0,.5-.1.7h0l-9.6,25.4h0v.2c0,.2-.1.4-.1.7,0,1.2,1,2.1,2.1,2.1h30.4c.9,0,1.7-.6,2-1.4h0l10.7-28.4h0c.3-.7,1-1.2,1.8-1.2h35.2c1.2,0,2.1-1,2.1-2.1v-27.9h0c0-1.2-1-2.1-2.1-2.1h-34.6c-1.2,0-2.1-.9-2.1-2.1v-2c0-1.2.9-2.1,2.1-2.1h34.6c1.2,0,2.1-1,2.1-2.1v-27.9h0Z"/>
        <polygon class="cls-1" points="195.3 47.5 166.3 71.4 176.1 47.5 195.3 47.5"/>
        <path class="cls-2" d="M90.4,98.5c0-.3,0-.5,0-.7h0l-20.2-49.1h0c-.3-.8-1.1-1.3-2-1.3h-30.3c-1.2,0-2.1,1-2.1,2.1s0,.5,0,.7h0l20.2,49h0c.3.8,1.1,1.3,2,1.3h30.3c1.2,0,2.1-1,2.1-2.1h0Z"/>
        <path class="cls-2" d="M168.8,50.3c0-.2.1-.5.1-.7,0-1.2-1-2.1-2.1-2.1h-45.2c-.9,0-1.6.5-2,1.3h0l-40,97.5s0,.5,0,.8c0,1.2,1,2.1,2.1,2.1h73.4l-22.4-10.7,36.2-88.1h0Z"/>
      </g>
    </g>
  </g>
</svg>