<?xml version="1.0" encoding="UTF-8"?>
<svg id="_レイヤー_2" data-name="レイヤー 2" xmlns="http://www.w3.org/2000/svg" viewBox="0 0 110.01 168.05">
  <defs>
    <style>
      .cls-1 {
        fill: #00396d;
      }

      .cls-1, .cls-2, .cls-3 {
        stroke-width: 0px;
      }

      .cls-2 {
        fill: #fff;
      }

      .cls-3 {
        fill: #0a9bcf;
      }
    </style>
  </defs>
  <g id="_レイヤー_1-2" data-name="レイヤー 1">
    <g>
      <rect class="cls-2" x="7.41" width="96.2" height="96.2"/>
      <g>
        <path class="cls-1" d="m27.77,126.89v-7.14c-.53.66-.91.94-.91.94l-.76-1.29c.97-.97,2.4-2.83,2.94-5.1l1.33.41c-.35,1.2-.76,2.21-1.23,3.07v9.12h-1.37Zm10.04-2.19c-1.55-1.62-2.45-3.73-2.84-5.35v7.54h-1.37v-7.45c-.42,1.76-1.5,3.78-3.05,5.27l-1.01-1.2c1.81-1.36,3.08-3.91,3.46-5.16h-2.94v-1.26h3.54v-2.66h1.37v2.66h3.56v1.26h-2.93c.31,1.09,1.36,3.53,3.21,5.06l-.99,1.3Z"/>
        <path class="cls-1" d="m50.01,126.89v-.8h-6.84v.8h-1.43v-12.19h9.69v12.19h-1.43Zm0-10.93h-6.84v3.61h6.84v-3.61Zm0,4.87h-6.84v3.99h6.84v-3.99Z"/>
        <path class="cls-1" d="m64.01,126.89v-.8h-6.84v.8h-1.43v-12.19h9.69v12.19h-1.43Zm0-10.93h-6.84v3.61h6.84v-3.61Zm0,4.87h-6.84v3.99h6.84v-3.99Z"/>
        <path class="cls-1" d="m79.79,126.81c-.7-.84-1.34-1.76-1.77-2.62-.53.92-1.37,1.91-2.31,2.69l-.87-1.23c1.04-.69,1.91-1.77,2.47-2.8-.6-1.36-.84-2.56-1.02-3.52-.14.28-.38.81-.56,1.08l-.78-1.13s-.66.94-.66.94c0,0-1.26-.62-1.93-2.07v2.06h-1.32v-2.02c-.76,1.61-2.04,2.26-2.04,2.26l-.78-1.16s1.32-.49,2.05-1.51h-1.75v-1.08h1.16c-.11-.21-.57-.95-1.06-1.51l.98-.66c.46.62,1.06,1.6,1.06,1.6l-.87.58h1.26v-2.41h1.32v2.41h1.25l-.91-.53s.59-.83.92-1.65l1.06.52c-.38.87-.85,1.5-.99,1.67h1.19v1.08h-1.74c.5.69,1.51,1.13,1.85,1.26,1.36-2.03,1.71-4.71,1.71-4.71l1.4.35s-.18.76-.52,1.78h3.24v1.26h-.7c-.07,1.18-.36,3.19-1.36,5.2.48.95,1.16,1.88,2.06,2.72l-1.02,1.19Zm-5.84-.22c-.48-.32-1.16-.79-1.65-1.04-.83.6-1.92,1.04-3.5,1.33l-.57-1.25c1.23-.1,2.13-.35,2.8-.69-1.27-.6-2.27-.99-2.27-.99.38-.43.83-.95,1.12-1.42h-1.54v-1.18h2.25c.35-.56.52-.99.52-.99l1.46.27s-.15.34-.39.73h3.21v1.18h-1.06c-.17.67-.6,1.58-1.08,2.13.43.21,1.05.56,1.5.81l-.78,1.11Zm-2.52-4.05c-.17.27-.56.71-.78.97,0,0,.55.31,1.34.66.38-.41.81-1.13.95-1.62h-1.51Zm5.77-4.83c.06.73.29,2.25.9,3.78.56-1.4.73-2.9.73-3.78h-1.62Z"/>
        <path class="cls-1" d="m6.84,167.81v-22.88l-5.8,5.04v-5.6l5.8-5.04h5.2v28.48h-5.2Z"/>
        <path class="cls-1" d="m21,167.81v-4.68l10.64-12.36c1.04-1.24,1.48-2.12,1.48-3.44,0-2.12-1.24-3.56-3.44-3.56-1.72,0-3.48.88-3.48,3.64h-5.2c0-5.2,3.8-8.32,8.68-8.32s8.64,3.16,8.64,8.28c0,2.76-1.08,4.24-3.04,6.52l-7.96,9.24h11v4.68h-17.32Z"/>
        <path class="cls-1" d="m51.24,168.05c-4.64,0-8.68-3.04-8.68-8.48v-12c0-5.44,4.04-8.48,8.68-8.48s8.64,3.04,8.64,8.48v12c0,5.44-4,8.48-8.64,8.48Zm3.44-20.4c0-2.4-1.36-3.88-3.44-3.88s-3.48,1.48-3.48,3.88v11.88c0,2.4,1.4,3.84,3.48,3.84s3.44-1.44,3.44-3.84v-11.88Z"/>
        <path class="cls-1" d="m74.09,167.79v-.91h-7.81v.91h-1.63v-13.93h11.08v13.93h-1.63Zm0-12.48h-7.81v4.13h7.81v-4.13Zm0,5.57h-7.81v4.56h7.81v-4.56Z"/>
        <path class="cls-1" d="m86.25,163.93c-2.1,1.14-4.88,2.3-7.01,2.9l-.35-1.57s.82-.24,1.39-.46v-11.17h1.66v10.63c1.02-.35,2.59-1.04,4.13-1.84l.18,1.52Zm.27-3.94s-1.28-2.48-2.79-3.91l1.23-.93c1.46,1.54,2.82,3.89,2.82,3.89l-1.26.94Zm5.54,7.71s-.69-1.9-2.1-3.76c-.82,1.54-2.07,2.77-3.76,3.84l-1.36-1.3c4.4-2.26,5.39-6.32,5.46-12.87h1.68c-.02,3.28-.29,6.31-1.23,8.79,1.68,1.97,2.54,3.94,2.54,3.94l-1.23,1.36Z"/>
        <path class="cls-1" d="m94.95,167.18v-1.54h5.65v-12.12h1.73v5.25h5.68v1.54h-5.68v5.33h6.9v1.54h-14.28Z"/>
      </g>
      <g>
        <polygon class="cls-3" points="36.58 63.77 36.58 51.39 42.77 62.11 45.09 60.77 38.9 50.05 49.62 56.24 50.96 53.91 40.24 47.72 52.63 47.72 52.63 45.04 40.24 45.04 50.96 38.85 49.62 36.52 38.9 42.72 45.09 31.99 42.77 30.65 36.58 41.37 36.58 28.99 33.89 28.99 33.89 41.38 27.7 30.65 25.37 31.99 31.57 42.71 20.84 36.52 19.5 38.85 30.23 45.04 17.84 45.04 17.84 47.72 30.23 47.72 19.5 53.92 20.84 56.24 31.56 50.05 25.37 60.77 27.7 62.11 33.89 51.38 33.89 63.77 36.58 63.77"/>
        <path class="cls-3" d="m35.23,20.15c2.48,0,4.5-2.02,4.5-4.5s-2.02-4.5-4.5-4.5-4.5,2.02-4.5,4.5,2.02,4.5,4.5,4.5Zm0-6.32c1,0,1.82.82,1.82,1.82s-.82,1.82-1.82,1.82-1.82-.82-1.82-1.82.82-1.82,1.82-1.82Z"/>
        <path class="cls-3" d="m19.87,24.27c.79,0,1.57-.21,2.25-.61,2.15-1.24,2.89-4,1.65-6.15-1.2-2.07-4.07-2.85-6.15-1.65-2.15,1.24-2.89,4-1.65,6.15.8,1.39,2.3,2.25,3.9,2.25Zm-1.76-4.98c.13-.47.43-.86.85-1.11.28-.16.59-.24.91-.24.65,0,1.26.35,1.58.91.24.42.31.91.18,1.38-.13.47-.43.86-.85,1.11-.85.49-2,.17-2.49-.67-.24-.42-.31-.91-.18-1.38Z"/>
        <path class="cls-3" d="m6.37,34.92c.69.4,1.46.6,2.25.6,1.61,0,3.1-.87,3.9-2.25,1.24-2.15.5-4.91-1.65-6.15-2.09-1.21-4.96-.42-6.15,1.65-1.24,2.15-.5,4.91,1.65,6.15Zm.67-4.81c.33-.56.93-.91,1.58-.91.32,0,.63.08.9.24.87.5,1.17,1.62.67,2.49-.48.84-1.64,1.16-2.49.67-.87-.5-1.17-1.62-.67-2.49Z"/>
        <path class="cls-3" d="m4.5,50.88c1.21,0,2.34-.47,3.19-1.32.85-.85,1.32-1.98,1.32-3.19,0-2.48-2.02-4.5-4.5-4.5-2.48,0-4.5,2.02-4.5,4.51,0,2.48,2.02,4.5,4.5,4.5h0Zm-1.82-4.5c0-1,.82-1.82,1.82-1.82,1,0,1.82.82,1.82,1.82,0,.49-.19.94-.53,1.28-.34.35-.8.54-1.29.54-1,0-1.82-.82-1.82-1.82Z"/>
        <path class="cls-3" d="m12.97,62.91c.31-1.16.15-2.38-.45-3.42-1.19-2.07-4.06-2.85-6.15-1.65-2.15,1.24-2.89,4-1.65,6.16.81,1.39,2.3,2.25,3.91,2.25.79,0,1.56-.21,2.25-.6,1.04-.6,1.79-1.57,2.1-2.74Zm-2.59-.69c-.12.47-.43.86-.85,1.11-.85.49-2,.16-2.49-.67-.5-.87-.2-1.99.67-2.49.28-.16.59-.24.91-.24.65,0,1.25.35,1.58.91.24.42.31.91.18,1.38Z"/>
        <path class="cls-3" d="m19.87,77.5c1.61,0,3.1-.86,3.91-2.25,1.24-2.15.5-4.92-1.65-6.16-2.08-1.21-4.96-.42-6.15,1.65-1.24,2.15-.5,4.91,1.65,6.15.68.4,1.46.6,2.25.6Zm-1.57-5.42c.32-.56.93-.91,1.58-.91.32,0,.63.09.9.24.42.24.73.64.85,1.11.13.47.06.96-.18,1.38-.48.83-1.65,1.15-2.49.67-.87-.5-1.17-1.62-.67-2.49Z"/>
        <path class="cls-3" d="m48.35,69.09c-2.15,1.24-2.89,4-1.65,6.15.8,1.39,2.3,2.25,3.91,2.25.79,0,1.56-.21,2.25-.6,2.15-1.24,2.89-4,1.65-6.15-1.19-2.08-4.08-2.86-6.15-1.65Zm3.16,5.48c-.84.49-2.01.17-2.49-.67-.5-.87-.2-1.99.67-2.49.28-.16.59-.24.9-.24.65,0,1.25.35,1.58.91.5.87.2,1.98-.67,2.49Z"/>
        <path class="cls-3" d="m62.78,43.2c-.85.85-1.32,1.98-1.31,3.18,0,2.48,2.02,4.5,4.5,4.5h0c2.48,0,4.5-2.02,4.5-4.5s-2.02-4.5-4.5-4.51c-1.21,0-2.34.47-3.19,1.33Zm5.01,3.18c0,1-.82,1.82-1.82,1.82-1,0-1.82-.82-1.82-1.82,0-.49.19-.94.53-1.28.35-.35.8-.54,1.29-.54,1,0,1.82.82,1.82,1.82Z"/>
        <path class="cls-3" d="m61.85,35.52c.78,0,1.56-.21,2.25-.6,1.04-.6,1.79-1.57,2.1-2.73.31-1.16.15-2.38-.45-3.42-1.2-2.07-4.07-2.85-6.15-1.65-1.04.6-1.79,1.58-2.1,2.74-.31,1.16-.15,2.38.45,3.41.8,1.39,2.3,2.25,3.9,2.25Zm-1.76-4.97c.12-.47.43-.86.85-1.11.28-.16.59-.24.9-.24.65,0,1.26.35,1.58.91.24.42.31.91.18,1.38-.13.47-.43.87-.84,1.11-.85.49-2,.17-2.49-.67-.24-.42-.31-.91-.18-1.38Z"/>
        <path class="cls-3" d="m48.35,23.66c.68.4,1.46.61,2.25.61,1.6,0,3.1-.86,3.9-2.25.6-1.04.76-2.25.45-3.42-.31-1.16-1.06-2.14-2.1-2.74-2.07-1.2-4.95-.42-6.15,1.64-.6,1.04-.76,2.26-.45,3.43.31,1.16,1.06,2.13,2.1,2.73Zm.68-4.81c.32-.56.93-.91,1.58-.91.32,0,.63.09.91.24.42.24.72.64.85,1.11.13.47.06.96-.18,1.38-.48.83-1.63,1.16-2.49.66-.42-.24-.72-.63-.85-1.1-.13-.47-.06-.96.18-1.38Z"/>
        <path class="cls-3" d="m95.89,84.37l3.01-22.7-19.9-9.7v-3.7l10.52-5.1-13.2-5.16v13.96l-19.9,9.7,3.01,22.7h-13.34l-8.72-15.11c11.69-1.07,20.87-10.92,20.87-22.88,0-12.68-10.31-22.99-22.99-22.99s-22.99,10.31-22.99,22.99c0,11.96,9.19,21.81,20.87,22.88l-8.72,15.11h-14.88v2.68h100.49v-2.68h-14.12Zm-16.89-42.43l3.82,1.49-3.82,1.85v-3.34Zm-64.07,4.44c0-11.2,9.11-20.31,20.31-20.31s20.31,9.11,20.31,20.31-8.78,19.95-19.69,20.28l-.61-1.06-.61,1.06c-10.91-.33-19.69-9.28-19.69-20.28Zm12.57,37.99l7.74-13.4,7.74,13.4h-15.48Zm64.13-23.26h-27.95l13.98-6.81,13.97,6.81Zm-10.06,23.26h-7.83v-4.87c0-2.16,1.76-3.91,3.92-3.91s3.91,1.76,3.91,3.91v4.87Zm11.61,0h-8.93v-4.87c0-3.64-2.96-6.6-6.6-6.6s-6.6,2.96-6.6,6.6v4.87h-8.93l-2.73-20.58h36.51l-2.73,20.58Z"/>
      </g>
    </g>
  </g>
</svg>