<svg xmlns="http://www.w3.org/2000/svg" viewBox="0 0 100.692 74.732"><g transform="translate(10538 20778.43)"><g transform="translate(338.818 27.497)"><rect width="51.93" height="51.93" transform="translate(-10852.818 -20805.928)" fill="#003e92"/><path d="M54.6,13.617l-8.489,6.971,2.882-6.971Z" transform="translate(-10857.487 -20807.307)" fill="#f99900"/><path d="M19.618,28.52a.626.626,0,0,0-.043-.214l0-.007-5.9-14.333-.005,0a.625.625,0,0,0-.574-.378H4.247a.628.628,0,0,0-.628.627.61.61,0,0,0,.043.211l-.005.007,5.9,14.322,0,0a.627.627,0,0,0,.58.392H18.99a.627.627,0,0,0,.627-.627" transform="translate(-10853.185 -20807.303)" fill="#fff"/><path d="M43.973,14.424a.614.614,0,0,0,.042-.211.627.627,0,0,0-.627-.627h-13.2a.626.626,0,0,0-.574.378l-.005,0L17.912,42.457a1.215,1.215,0,0,0-.039.221.628.628,0,0,0,.627.628l21.468-.018-6.561-3.1L43.979,14.431Z" transform="translate(-10854.629 -20807.303)" fill="#fff"/></g><g transform="translate(-10538 -20763.563)"><path d="M1.678,53.2A17.5,17.5,0,0,0,0,49.453l1.612-.616A18.036,18.036,0,0,1,3.4,52.508L1.678,53.2Zm-.315,4.326C6.24,56.244,7.931,52.836,8.18,48.68l1.94.3c-.918,5.047-2.36,8.01-7.433,10.055L1.363,57.542Z" transform="translate(0 0.187)" fill="#003e92"/><path d="M10.62,55.06c.026-1.35.052-2.805.052-4.156,0-.878,0-1.717-.026-2.438l1.757.026c-.026.682-.039,1.442-.039,2.242,0,1.39.026,2.884.066,4.3ZM12,58.18c3.3-.551,4.667-1.691,4.693-4.47V51.573c0-.97,0-2.058-.039-3.133h1.77c-.039,1.835-.052,3.828-.052,5.231,0,2.583-1.036,5.021-4.982,6.083l-1.4-1.56Z" transform="translate(3.302 0.112)" fill="#003e92"/><path d="M25.146,59.062a19.427,19.427,0,0,0-4.038-5.322l1.586-.787a21.3,21.3,0,0,1,1.56,1.639,17.9,17.9,0,0,0,3.5-3.8c-2.307.026-6.62.026-8.639.17l-.026-1.691c1.075,0,2.674.026,4.339.026,2.333,0,4.759,0,5.912-.066l1.049,1a32.116,32.116,0,0,1-5.034,5.689c.524.695,1.036,1.416,1.494,2.124l-1.7,1Z" transform="translate(5.936 0.358)" fill="#003e92"/><path d="M40.175,54.243c-.865-.026-2.465-.039-4.247-.052a5.729,5.729,0,0,1-3.592,5.244L30.8,58.045c2.006-.616,3.448-1.966,3.448-3.867-2.189,0-4.352.039-5.309.066V52.657c.97.039,3.107.052,5.309.052V50.94c-1.154.21-2.307.367-3.5.511l-.76-1.521c2.871-.21,5.768-.708,7.6-1.73l1.114,1.442a18.487,18.487,0,0,1-2.766.918v2.15c1.744,0,3.369-.026,4.247-.052v1.586Z" transform="translate(8.998 0.037)" fill="#003e92"/><path d="M38.613,57.886c1.612,0,1.639-.052,1.639-.682V55.447a11.315,11.315,0,0,1-1.363.38l-.288-1.6c.59-.131,1.141-.288,1.652-.433V51.633H38.81V50.1h1.442V48.119h1.521V50.1h1.009v1.534H41.772v1.626c.406-.17.734-.315.931-.406v1.6c-.236.1-.551.262-.931.419V56.85c0,2.084-.026,2.674-2.583,2.674l-.59-1.639ZM49.1,59.1a7.358,7.358,0,0,1-1.862-2.7v3.251H45.705v-3.2a6.328,6.328,0,0,1-2.281,2.792l-1.062-1.481a8.789,8.789,0,0,0,3-2.569H43.057V53.73h2.648V52.6h1.534V53.73h2.635V55.2H47.593a9.321,9.321,0,0,0,2.569,2.451L49.1,59.118Zm1.023-9.648a42.079,42.079,0,0,1-7.066.551L42.6,48.526c6.122-.052,6.673-.446,6.673-.446l.865,1.39ZM44,52.944a17.307,17.307,0,0,0-1.1-1.875l1.337-.708a18.8,18.8,0,0,1,1.088,1.862L44,52.944Zm1.9-.537a8.3,8.3,0,0,0-.695-1.993l1.468-.433c.341.878.655,2.019.655,2.019l-1.442.406Zm1.639-.315a9.613,9.613,0,0,0,1.193-2.281l1.4.655a11.408,11.408,0,0,1-1.35,2.478l-1.245-.852Z" transform="translate(12.002)" fill="#003e92"/><path d="M56.08,57.936c1.521,0,1.757-.052,1.757-.747V55.9h-2.91v3.487H53.393V55.9h-2.91a8.637,8.637,0,0,1-1.036,3.671L48.28,58.146c.616-1.337.813-2.91.813-6.135V48.34H59.4v8.547c0,2.084-.21,2.569-2.635,2.674l-.669-1.639ZM53.393,52.85H50.627c0,.511,0,1.114-.039,1.586h2.805Zm0-2.963H50.627v1.481h2.766Zm4.444,0h-2.91v1.481h2.91Zm0,2.963h-2.91v1.586h2.91Z" transform="translate(15.012 0.081)" fill="#003e92"/><path d="M58.17,54.059a22.911,22.911,0,0,0,.275-3.854V49.8l1.088.249v.2a35.875,35.875,0,0,1-.249,4.614l-1.114-.787Zm4.1-.983v-.747l-.524.328c-.131-.826-.459-2.084-.459-2.084v9.085H59.756V48.12H61.29v2.071l.8-.393s.328,1.049.577,2.019h2.517v-.5H62.85V50.27h2.333v-.459h-2.7V48.618h2.7v-.485h1.626v.485h2.609v1.193H66.809v.459H69.1v1.049H66.809v.5h2.9v1.272h-7.42Zm3.854,5.2c1.547,0,1.612,0,1.612-.459H64.122v1.835H62.549v-6.1h6.764v3.867c0,1.862-.17,2.084-2.648,2.2l-.537-1.363Zm1.612-3.566H64.122v.537H67.74Zm0,1.534H64.122v.564H67.74Z" transform="translate(18.087 0.012)" fill="#003e92"/><path d="M70.129,59.656V57.728H68.281V56.3h1.848V55.277H68.11V53.848h.957c-.131-.459-.275-.983-.38-1.285H67.94V51.148h2.176v-.865h-1.8v-1.39h1.8V48.08H71.65v.813h1.783v1.39H71.65v.865h2.058v1.416h-.642c-.066.3-.2.839-.341,1.285h.944v1.429H71.65V56.3H73.5v1.429H71.65v1.927H70.116ZM71.3,53.861a6.888,6.888,0,0,0,.367-1.285H70.116a10.706,10.706,0,0,1,.328,1.285ZM78.7,59.655A6.8,6.8,0,0,1,77.484,58.5a5,5,0,0,1-1.258,1.154l-.8-1.167v1.167H73.957V48.421h5.362v1.114c0,2.347-.2,2.674-2.412,2.674l-.629-1.4h.406c1.075,0,1.088-.026,1.088-.629v-.3H75.425v2.805h3.88A11.917,11.917,0,0,1,78.3,57.44a4.84,4.84,0,0,0,1.272.865l-.878,1.35Zm-3.264-5.532v4.169a3.414,3.414,0,0,0,1.272-.839,9.287,9.287,0,0,1-.97-3.33h-.288Zm1.612,0a7.589,7.589,0,0,0,.419,2.229,7.63,7.63,0,0,0,.42-2.229h-.852Z" transform="translate(21.124)" fill="#003e92"/></g></g></svg>