<?xml version="1.0" encoding="UTF-8"?>
<svg id="_レイヤー_2" data-name="レイヤー 2" xmlns="http://www.w3.org/2000/svg" viewBox="0 0 75.57 56.13">
  <defs>
    <style>
      .cls-1 {
        fill: #fff;
        stroke-width: 0px;
      }
    </style>
  </defs>
  <g id="_レイヤー_1-2" data-name="レイヤー 1">
    <g>
      <path class="cls-1" d="m57.22,0h-10.24c-4.52,0-8.38,3.01-9.61,7.12-1.23-4.12-5.05-7.12-9.59-7.12-5.51,0-10.01,4.48-10.01,10.02,0,4.86,3.5,8.91,8.06,9.85.82.14,1.34.19,1.48.19.17,0,.69,0,.69,0,2.54.03,4.57,2.14,4.57,4.75s-2.16,4.78-4.79,4.78-4.78-2.15-4.78-4.78c0-1.54.7-2.97,1.78-3.9l-4.66-2.55c-1.46,1.76-2.35,4.01-2.35,6.45,0,5.52,4.5,10.03,10.01,10.03,4.54,0,8.36-3.01,9.59-7.14,1.23,4.13,5.09,7.14,9.61,7.14,5.51,0,10.02-4.51,10.02-10.03,0-2.91-1.27-5.54-3.28-7.4,2.01-1.83,3.28-4.48,3.28-7.4,0-1.67-.35-3.12-.95-4.39h1.18V0Zm-10.24,29.6c-2.65,0-4.78-2.15-4.78-4.78,0-1.54.68-2.82,1.72-3.82l-4.62-2.58c-.88,1.01-1.53,2.23-1.93,3.52-.73-2.43-2.35-4.49-4.52-5.75l-.75-.39c-1.7-.85-2.97-.95-3.69-.97-.12,0-.5-.02-.62-.02-2.63,0-4.78-2.14-4.78-4.79s2.16-4.78,4.78-4.78,4.79,2.13,4.79,4.78c0,1.58-.75,2.93-1.89,3.83l4.78,2.63c.85-1.03,1.5-2.21,1.91-3.56,1,3.21,3.54,5.75,6.78,6.7,1.39.39,2.83.44,2.83.44,2.63.1,4.77,2.12,4.77,4.76s-2.14,4.78-4.77,4.78Zm0-14.79c-2.65,0-4.78-2.14-4.78-4.79s2.14-4.78,4.78-4.78h0c2.63,0,4.77,2.13,4.77,4.78s-2.14,4.79-4.77,4.79Z"/>
      <g>
        <path class="cls-1" d="m1.26,51.28c-.29-.89-.85-2.23-1.26-2.81l1.21-.46c.47.69,1,1.81,1.34,2.75l-1.29.52Zm-.24,3.25c3.66-.96,4.93-3.52,5.12-6.64l1.45.22c-.69,3.79-1.77,6.02-5.58,7.55l-.99-1.13Z"/>
        <path class="cls-1" d="m10.45,52.62c.02-1.01.04-2.11.04-3.12,0-.66,0-1.29-.02-1.83l1.32.02c-.02.51-.03,1.08-.03,1.69,0,1.04.02,2.17.05,3.23l-1.36.02Zm1.03,2.34c2.48-.41,3.5-1.27,3.52-3.36,0-.46,0-1.01,0-1.61,0-.73,0-1.54-.03-2.35h1.33c-.03,1.38-.04,2.88-.04,3.93,0,1.93-.78,3.77-3.75,4.56l-1.05-1.17Z"/>
        <path class="cls-1" d="m23.33,55.8c-.62-1.32-2-3.09-3.03-4l1.19-.59c.38.35.77.77,1.17,1.23,1.18-.97,2.01-1.94,2.63-2.85-1.73.02-4.97.02-6.49.13l-.02-1.27c.81,0,2.01.02,3.25.02,1.75,0,3.57,0,4.44-.05l.79.75c-1.35,1.88-2.45,3.08-3.78,4.27.39.52.78,1.06,1.13,1.6l-1.28.75Z"/>
        <path class="cls-1" d="m36.91,51.95c-.65-.02-1.85-.03-3.19-.04-.03,1.74-.99,3.16-2.7,3.94l-1.16-1.04c1.5-.46,2.59-1.47,2.59-2.91-1.65,0-3.26.03-3.99.05v-1.19c.73.03,2.33.04,3.99.04,0-.47,0-.98,0-1.33-.87.15-1.73.28-2.63.39l-.57-1.15c2.16-.15,4.33-.53,5.71-1.3l.84,1.08c-.67.29-1.37.51-2.08.69v1.62c1.31,0,2.53-.02,3.19-.04v1.19Z"/>
        <path class="cls-1" d="m37.98,54.66c1.21,0,1.23-.04,1.23-.51v-1.32c-.31.11-.66.2-1.02.29l-.22-1.2c.44-.1.86-.21,1.24-.33v-1.63h-1.08v-1.16h1.08v-1.48h1.15v1.48h.76v1.16h-.76v1.22c.31-.12.55-.23.7-.31v1.2c-.17.08-.41.19-.7.32v1.48c0,1.57-.02,2.01-1.94,2.01l-.44-1.23Zm7.88.91c-.66-.63-1.08-1.22-1.4-2.03v2.45h-1.16v-2.41c-.33.85-1.02,1.64-1.71,2.1l-.8-1.12c1.41-.7,2.25-1.93,2.25-1.93h-1.73v-1.1h1.99v-.85h1.16v.85h1.98v1.1h-1.71s.79,1.17,1.93,1.84l-.8,1.1Zm.77-7.24s-1.77.37-5.31.41l-.35-1.12c4.59-.04,5.01-.34,5.01-.34l.65,1.04Zm-4.59,2.62s-.36-.72-.83-1.41l1-.53c.4.58.82,1.4.82,1.4l-.99.54Zm1.42-.4s-.15-.81-.52-1.49l1.11-.33c.26.66.49,1.51.49,1.51l-1.08.31Zm1.23-.23c.57-.77.9-1.71.9-1.71l1.05.49s-.44,1.15-1.01,1.86l-.93-.64Z"/>
        <path class="cls-1" d="m53.35,54.75c1.15,0,1.32-.04,1.32-.56v-.96h-2.19v2.62h-1.16v-2.62h-2.19c-.12,1.12-.32,1.99-.78,2.75l-.88-1.08c.46-1,.61-2.19.61-4.6v-2.75h7.74v6.42c0,1.57-.15,1.92-1.98,2.01l-.5-1.23Zm-2.02-3.82h-2.08c0,.38,0,.84-.03,1.19h2.11v-1.19Zm0-2.22h-2.08v1.12h2.08v-1.12Zm3.34,0h-2.19v1.12h2.19v-1.12Zm0,2.22h-2.19v1.19h2.19v-1.19Z"/>
        <path class="cls-1" d="m57.22,51.79c.18-.94.2-2.29.2-2.9v-.31l.82.18v.14c0,.51,0,2.18-.18,3.47l-.84-.59Zm3.08-.74v-.56l-.39.24c-.1-.62-.35-1.57-.35-1.57v6.83h-1.16v-8.67h1.16v1.56l.6-.3s.25.79.43,1.51h1.89v-.38h-1.75v-.79h1.75v-.35h-2.03v-.9h2.03v-.37h1.22v.37h1.96v.9h-1.96v.35h1.72v.79h-1.72v.38h2.18v.95h-5.58Zm2.9,3.91c1.17,0,1.21,0,1.21-.35h-2.71v1.38h-1.18v-4.57h5.08v2.91c0,1.4-.13,1.57-1.99,1.66l-.4-1.02Zm1.21-2.68h-2.71v.4h2.71v-.4Zm0,1.16h-2.71v.42h2.71v-.42Z"/>
        <path class="cls-1" d="m68.48,55.99v-1.44h-1.39v-1.07h1.39v-.77h-1.51v-1.07h.72c-.1-.35-.21-.74-.29-.96h-.56v-1.06h1.64v-.64h-1.35v-1.04h1.35v-.61h1.16v.61h1.34v1.04h-1.34v.64h1.54v1.06h-.48c-.05.23-.14.63-.26.96h.71v1.07h-1.51v.77h1.39v1.07h-1.39v1.44h-1.16Zm.88-4.35c.12-.31.23-.7.28-.96h-1.17c.08.25.18.63.25.96h.63Zm5.57,4.35c-.36-.27-.64-.53-.92-.87-.28.36-.58.63-.94.87l-.6-.88v.88h-1.11v-8.43h4.02v.84c0,1.76-.14,2.01-1.81,2.01l-.47-1.05h.31c.81,0,.82-.02.82-.47v-.23h-1.76v2.11h2.92c0,.87-.22,2.57-.76,3.57.29.28.58.46.95.65l-.65,1.01Zm-2.46-4.16v3.13c.36-.13.65-.33.95-.63-.42-.87-.66-1.68-.73-2.5h-.22Zm1.21,0c0,.5.13,1.16.32,1.67.19-.55.31-1.2.32-1.67h-.64Z"/>
      </g>
    </g>
  </g>
</svg>