<?xml version="1.0" encoding="utf-8"?>
<!-- Generator: Adobe Illustrator 22.0.1, SVG Export Plug-In . SVG Version: 6.00 Build 0)  -->
<svg version="1.1" id="レイヤー_1" xmlns="http://www.w3.org/2000/svg" xmlns:xlink="http://www.w3.org/1999/xlink" x="0px"
	 y="0px" viewBox="0 0 30 30" style="enable-background:new 0 0 30 30;" xml:space="preserve">
<style type="text/css">
	.st0{fill:#145D91;}
</style>
<g>
	<path class="st0" d="M29.8,1.9h-7.7c-3.4,0-6.3,2.3-7.2,5.3C14,4.2,11.1,1.9,7.7,1.9c-4.1,0-7.5,3.4-7.5,7.5c0,3.6,2.6,6.7,6.1,7.4
		c0.6,0.1,1,0.1,1.1,0.1l0.5,0c1.9,0,3.4,1.6,3.4,3.6c0,2-1.6,3.6-3.6,3.6c-2,0-3.6-1.6-3.6-3.6c0-1.2,0.5-2.2,1.3-2.9L2,15.7
		c-1.1,1.3-1.8,3-1.8,4.8c0,4.1,3.4,7.5,7.5,7.5c3.4,0,6.3-2.3,7.2-5.3c0.9,3.1,3.8,5.3,7.2,5.3c4.1,0,7.5-3.4,7.5-7.5
		c0-2.2-1-4.2-2.5-5.6c1.5-1.4,2.5-3.4,2.5-5.6c0-1.2-0.3-2.3-0.7-3.3h0.9V1.9 M22.1,24.2c-2,0-3.6-1.6-3.6-3.6
		c0-1.2,0.5-2.1,1.3-2.9l-3.5-2c-0.6,0.8-1.1,1.7-1.4,2.7c-0.5-1.8-1.8-3.4-3.4-4.3l-0.6-0.3c-1.3-0.6-2.2-0.7-2.8-0.7l-0.5,0
		c-2,0-3.6-1.6-3.6-3.6c0-2,1.6-3.6,3.6-3.6c2,0,3.6,1.6,3.6,3.6c0,1.2-0.6,2.2-1.4,2.9l3.6,2c0.7-0.8,1.1-1.7,1.4-2.7
		c0.7,2.4,2.6,4.3,5.1,5c1.1,0.3,2.1,0.3,2.1,0.3c2,0.1,3.6,1.6,3.6,3.6C25.7,22.5,24.1,24.2,22.1,24.2 M22.1,13
		c-2,0-3.6-1.6-3.6-3.6c0-2,1.6-3.6,3.6-3.6h0c2,0,3.6,1.6,3.6,3.6C25.7,11.4,24.1,13,22.1,13"/>
</g>
</svg>
