<?xml version="1.0" encoding="UTF-8"?>
<svg id="_レイヤー_2" data-name="レイヤー 2" xmlns="http://www.w3.org/2000/svg" viewBox="0 0 103.17 168.05">
  <defs>
    <style>
      .cls-1 {
        fill: #00396d;
      }

      .cls-1, .cls-2 {
        stroke-width: 0px;
      }

      .cls-3 {
        fill: none;
        stroke: #0a9bcf;
        stroke-linecap: round;
        stroke-linejoin: round;
        stroke-width: 3px;
      }

      .cls-2 {
        fill: #0a9bcf;
      }
    </style>
  </defs>
  <g id="_レイヤー_1-2" data-name="レイヤー 1">
    <g>
      <g>
        <path class="cls-1" d="m15.85,126.89c-2.42-1.58-4.68-4.57-5.04-7.49-.45,2.97-2.51,5.81-5.85,7.49l-.92-1.34c4.9-1.98,6.02-6.79,6.02-8.52v-.88h-3.05v-1.32h4.51v1.5c0,3.38,1.56,6.83,5.27,9.19l-.92,1.37Z"/>
        <path class="cls-1" d="m20.59,126.89v-5.56c-.45.43-1.19,1.04-1.98,1.47l-.6-1.22c3.35-1.82,4.34-3.89,4.34-3.89h-3.6v-1.26h1.83v-2.14h1.34v2.14h1.82v1.25s-.43.95-1.47,2.17c.38.38,1.12.87,1.86,1.36l-.83,1.16c-.59-.52-1.08-1.13-1.39-1.51v6.04h-1.34Zm2.76-.67v-1.26h3.11v-5.15h-2.4v-1.26h2.4v-4.27h1.34v4.27h2.55v1.26h-2.55v5.15h2.83v1.26h-7.28Z"/>
        <path class="cls-1" d="m34.34,116.28l-.29,3.1h.03c.41-.53,1.27-.85,2.38-.85,1.82,0,3.7,1.02,3.7,3.68s-1.78,3.88-3.96,3.88c-1.99,0-3.56-1.01-4.01-2.61l1.47-.48c.29,1.13,1.34,1.71,2.55,1.71s2.41-.78,2.41-2.49-1.26-2.46-2.4-2.46c-.9,0-1.92.56-2.28,1.4l-1.5-.32.52-5.92h6.46v1.37h-5.07Z"/>
        <path class="cls-1" d="m49.24,124.03v2.86h-1.39v-2.86h-6.11v-1.26h2.06v-3.57h4.05v-1.93h-2.84c-.52.74-1.22,1.65-2.11,2.34l-1.15-1.01c2.41-1.74,3.25-4.26,3.25-4.26l1.4.32s-.25.7-.7,1.34h8.04v1.26h-4.5v1.93h3.77v1.22h-3.77v2.35h5v1.26h-5Zm-1.39-3.61h-2.66v2.35h2.66v-2.35Z"/>
        <path class="cls-1" d="m65.59,126.89v-.7h-7.2v.7h-1.43v-12.19h10.04v12.19h-1.42Zm0-10.93h-7.2v2.07h7.2v-2.07Zm0,3.25h-7.2v2.16h7.2v-2.16Zm0,3.33h-7.2v2.38h7.2v-2.38Z"/>
        <path class="cls-1" d="m76.13,123.51c-1.83.99-4.27,2.02-6.14,2.54l-.31-1.37s.71-.21,1.22-.41v-9.78h1.46v9.3c.9-.31,2.27-.91,3.61-1.61l.15,1.33Zm.24-3.45s-1.12-2.17-2.44-3.42l1.08-.81c1.27,1.34,2.47,3.4,2.47,3.4l-1.11.83Zm4.85,6.75s-.6-1.67-1.83-3.29c-.71,1.34-1.81,2.42-3.29,3.36l-1.19-1.13c3.85-1.98,4.72-5.53,4.78-11.26h1.47c-.01,2.87-.25,5.52-1.08,7.69,1.47,1.72,2.23,3.45,2.23,3.45l-1.08,1.19Z"/>
        <path class="cls-1" d="m88.7,126.89v-10.49h-4.73v-1.29h12.03v1.29h-5.77v10.49h-1.53Zm5.46-4.03c-1.15-.87-2.65-1.93-3.89-2.73l.84-1.18c1.23.76,2.79,1.83,3.95,2.68l-.9,1.23Z"/>
        <path class="cls-1" d="m5.8,167.81v-22.88l-5.8,5.04v-5.6l5.8-5.04h5.2v28.48h-5.2Z"/>
        <path class="cls-1" d="m28.48,168.05c-4.64,0-8.68-3.04-8.68-8.48v-12c0-5.44,4.04-8.48,8.68-8.48s8.64,3.04,8.64,8.48v12c0,5.44-4,8.48-8.64,8.48Zm3.44-20.4c0-2.4-1.36-3.88-3.44-3.88s-3.48,1.48-3.48,3.88v11.88c0,2.4,1.4,3.84,3.48,3.84s3.44-1.44,3.44-3.84v-11.88Z"/>
        <path class="cls-1" d="m42.04,167.81v-5.92h5.96v5.92h-5.96Z"/>
        <path class="cls-1" d="m61.52,168.05c-5.04,0-8.88-3.16-8.88-8.8,0-2.6,1.12-5,2.4-7.6l6-12.32h5.68l-5.92,11.76c.68-.28,1.44-.36,2.12-.36,3.84,0,7.48,3.16,7.48,8.44,0,5.6-3.84,8.88-8.88,8.88Zm0-13c-2.12,0-3.68,1.52-3.68,4.16s1.56,4.16,3.68,4.16,3.68-1.52,3.68-4.16-1.48-4.16-3.68-4.16Z"/>
        <path class="cls-1" d="m75.16,165.66v1.49h-1.52v-12.92h4.72v11.43h-3.2Zm1.68-9.99h-1.68v3.46h1.68v-3.46Zm0,4.9h-1.68v3.65h1.68v-3.65Zm5.15,5.71c2.08,0,2.4-.13,2.4-.53v-3.46h-5.23v-1.39h5.23v-1.58h-5.44v-1.39h3.49v-1.6h-2.96v-1.39h2.96v-1.55h1.54v1.55h2.96v1.39h-2.96v1.6h3.67v1.39h-1.7v1.58h1.54v1.39h-1.54v3.51c0,1.44-.51,1.97-3.15,1.97l-.8-1.49Zm-.59-.53s-.54-.99-1.62-2.27l1.22-.86c1.01,1.18,1.71,2.27,1.71,2.27l-1.31.86Z"/>
        <path class="cls-1" d="m89.77,167.79v-13.94h6.13v5.7h-4.56v8.24h-1.57Zm4.63-12.71h-3.06v1.09h3.06v-1.09Zm0,2.08h-3.06v1.25h3.06v-1.25Zm4.96,9.12h-6.32v-5.73h6.75v5.59c1.76,0,1.81-.16,1.81-.7v-5.89h-4.61v-5.7h6.18v11.41c0,1.68-.46,2.46-3.23,2.46l-.58-1.44Zm-1.14-4.66h-3.63v1.15h3.63v-1.15Zm0,2.24h-3.63v1.25h3.63v-1.25Zm3.38-8.77h-3.1v1.07h3.1v-1.07Zm0,2.06h-3.1v1.25h3.1v-1.25Z"/>
      </g>
      <g>
        <path class="cls-2" d="m50.16,0C23.64,0,2.06,21.58,2.06,48.1s21.58,48.1,48.1,48.1,48.1-21.58,48.1-48.1S76.68,0,50.16,0Zm0,90.57c-23.42,0-42.47-19.05-42.47-42.47S26.74,5.63,50.16,5.63s42.47,19.05,42.47,42.47-19.05,42.47-42.47,42.47Z"/>
        <path class="cls-2" d="m50.16,17.05c1.04,0,1.88-.84,1.88-1.88v-4.53c0-1.04-.84-1.88-1.88-1.88s-1.88.84-1.88,1.88v4.53c0,1.04.84,1.88,1.88,1.88Z"/>
        <path class="cls-2" d="m69.83,14.04c-.9-.52-2.04-.21-2.56.69l-2.27,3.93c-.52.9-.21,2.04.69,2.56.3.17.62.25.94.25.65,0,1.28-.34,1.63-.94l2.27-3.93c.52-.9.21-2.04-.69-2.56Z"/>
        <path class="cls-2" d="m78.67,33.51c.32,0,.64-.08.94-.25l3.92-2.27c.9-.52,1.2-1.66.69-2.56-.52-.9-1.67-1.2-2.56-.69l-3.92,2.27c-.9.52-1.2,1.66-.69,2.56.35.6.98.94,1.63.94Z"/>
        <path class="cls-2" d="m87.62,46.22h-4.53c-1.04,0-1.88.84-1.88,1.88s.84,1.88,1.88,1.88h4.53c1.04,0,1.88-.84,1.88-1.88s-.84-1.88-1.88-1.88Z"/>
        <path class="cls-2" d="m83.54,65.2l-3.92-2.27c-.9-.52-2.04-.21-2.56.69-.52.9-.21,2.04.69,2.56l3.92,2.27c.3.17.62.25.94.25.65,0,1.28-.34,1.63-.94.52-.9.21-2.04-.69-2.56Z"/>
        <path class="cls-2" d="m68.25,75.67c-.52-.9-1.67-1.2-2.56-.69-.9.52-1.2,1.66-.69,2.56l2.27,3.93c.35.6.98.94,1.63.94.32,0,.64-.08.94-.25.9-.52,1.2-1.66.69-2.56l-2.27-3.93Z"/>
        <path class="cls-2" d="m50.16,79.15c-1.04,0-1.88.84-1.88,1.88v4.53c0,1.04.84,1.88,1.88,1.88s1.88-.84,1.88-1.88v-4.53c0-1.04-.84-1.88-1.88-1.88Z"/>
        <path class="cls-2" d="m34.64,74.99c-.9-.52-2.04-.21-2.56.69l-2.27,3.93c-.52.9-.21,2.04.69,2.56.3.17.62.25.94.25.65,0,1.28-.34,1.63-.94l2.27-3.93c.52-.9.21-2.04-.69-2.56Z"/>
        <path class="cls-2" d="m20.71,62.94l-3.92,2.27c-.9.52-1.2,1.66-.69,2.56.35.6.98.94,1.63.94.32,0,.64-.08.94-.25l3.92-2.27c.9-.52,1.2-1.66.69-2.56-.52-.9-1.67-1.2-2.56-.69Z"/>
        <path class="cls-2" d="m19.11,48.1c0-1.04-.84-1.88-1.88-1.88h-4.53c-1.04,0-1.88.84-1.88,1.88s.84,1.88,1.88,1.88h4.53c1.04,0,1.88-.84,1.88-1.88Z"/>
        <path class="cls-2" d="m22.59,30.01l-3.92-2.27c-.9-.52-2.04-.21-2.56.69-.52.9-.21,2.04.69,2.56l3.92,2.27c.3.17.62.25.94.25.65,0,1.28-.34,1.63-.94.52-.9.21-2.04-.69-2.56Z"/>
        <path class="cls-2" d="m33.06,14.72c-.52-.9-1.66-1.2-2.56-.69s-1.2,1.66-.69,2.56l2.27,3.93c.35.6.98.94,1.63.94.32,0,.64-.08.94-.25.9-.52,1.2-1.66.69-2.56l-2.27-3.93Z"/>
        <circle class="cls-2" cx="50.16" cy="48.64" r="4.22"/>
        <polyline class="cls-3" points="55.43 73.4 50.09 48.64 26.1 48.64"/>
      </g>
    </g>
  </g>
</svg>