<?xml version="1.0" encoding="UTF-8"?>
<svg xmlns="http://www.w3.org/2000/svg" viewBox="0 0 1539.54 1198.19">
  <defs>
    <style>
      .cls-1 {
        isolation: isolate;
      }

      .cls-2 {
        fill: #e5e5e5;
      }

      .cls-2, .cls-3, .cls-4, .cls-5 {
        stroke-width: 0px;
      }

      .cls-4 {
        fill: none;
      }

      .cls-5 {
        fill: #add5d0;
      }

      .cls-6 {
        mix-blend-mode: multiply;
      }
    </style>
  </defs>
  <g class="cls-1">
    <g id="_レイヤー_2" data-name="レイヤー 2">
      <g id="_レイヤー_3" data-name="レイヤー 3">
        <g>
          <path class="cls-5" d="m1280.85,1039.69l-23.98-96.84h-208.43s-17.98-25.36-24.44-29.51c0,0,2.31-122.2,8.76-146.64,6.46-24.44,18.44-41.5,68.25-53.03,49.8-11.53,91.76-18.91,91.76-18.91,0,0,30.43,25.82,77.01,31.36,46.57,5.53,99.14-17.98,107.9-31.82,0,0,116.2,17.06,136.49,45.19,20.29,28.13,25.36,83.46,25.36,112.51s-14.29,261.46-20.29,281.75c-5.99,20.29-21.67,39.66-48.88,41.96-27.21,2.31-107.44-12.45-107.44-12.45,0,0,19.37-30.9,17.98-51.18-1.38-20.29-11.53-47.5-11.53-47.5l-18.91-1.38s-39.66-20.29-69.63-23.52Z"/>
          <g>
            <rect class="cls-5" x="621.15" y="314.89" width="471.58" height="221.92" rx="12" ry="12"/>
            <path class="cls-5" d="m718.24,525.25s23.12,39.3,41.61,60.1v-64.73l-41.61,4.62Z"/>
          </g>
          <g class="cls-6">
            <rect class="cls-2" x="468.06" y="130.44" width="471.58" height="221.92" rx="12" ry="12"/>
            <path class="cls-2" d="m606.76,340.8s-23.12,39.3-41.61,60.1v-64.73l41.61,4.62Z"/>
          </g>
          <path class="cls-3" d="m1273.01,671.72c-42.41,0-91.59-34.5-100.16-45.93-8.75-11.67-18.75-34.78-21.94-60.81-10.8-3.3-26.75-11.11-31.19-28.93-2.9-11.63.49-23.99,8.64-31.47,5.07-4.66,11.4-6.77,17.94-6.11-.33-14.39-1.14-53.67-.56-66.26.1-2.29,2.05-4.07,4.34-3.97,2.29.1,4.07,2.05,3.97,4.34-.68,14.9.68,70.39.69,70.95.03,1.36-.6,2.65-1.7,3.46-1.1.8-2.52,1.02-3.81.58-5.57-1.9-10.98-.79-15.25,3.13-5.85,5.37-8.34,14.75-6.2,23.33,2.82,11.3,12.76,19.71,27.99,23.68,1.68.44,2.91,1.87,3.09,3.6,1.83,17.84,9.07,44.07,20.63,59.49,7.7,10.27,54.46,42.6,93.51,42.6,34.81,0,80.43-30.37,87.43-38.64,8.05-9.52,25.79-37.77,30.97-57.84.47-1.81,2.08-3.08,3.94-3.12,31.59-.66,45.73-22.36,45.73-43.57,0-7.81-2.89-13.79-8.59-17.76-7.41-5.17-17.61-5.54-23.85-3.24-2.15.8-4.55-.31-5.34-2.47-.79-2.16.31-4.55,2.47-5.34,8.02-2.95,21.29-2.89,31.49,4.22,5.54,3.87,12.15,11.27,12.15,24.59s-4.82,26.23-13.58,35.53c-9.13,9.7-21.94,15.28-37.19,16.22-6.77,22.58-24.99,50.05-31.83,58.14-8.48,10.03-56.62,41.59-93.79,41.59Z"/>
          <path class="cls-3" d="m1265.4,552.75h-11.76c-2.3,0-4.16-1.86-4.16-4.16v-50.49c0-2.3,1.86-4.16,4.16-4.16s4.16,1.86,4.16,4.16v46.33h7.6c2.3,0,4.16,1.86,4.16,4.16s-1.86,4.16-4.16,4.16Z"/>
          <path class="cls-3" d="m1218.02,497.41c-.95,0-1.91-.32-2.69-.99-10.22-8.67-23.67-4.91-28.6-.96-1.79,1.43-4.41,1.15-5.85-.65-1.44-1.79-1.14-4.41.65-5.85,7.86-6.29,25.75-10.28,39.18,1.11,1.75,1.49,1.97,4.11.48,5.86-.82.97-1.99,1.47-3.17,1.47Z"/>
          <path class="cls-3" d="m1348.06,497.41c-.95,0-1.91-.32-2.69-.99-10.22-8.67-23.67-4.91-28.6-.96-1.79,1.43-4.41,1.15-5.85-.65-1.43-1.79-1.14-4.41.65-5.85,7.86-6.29,25.75-10.28,39.18,1.11,1.75,1.49,1.97,4.11.48,5.86-.82.97-1.99,1.47-3.17,1.47Z"/>
          <path class="cls-3" d="m1152.65,537.19c-.82,0-1.64-.24-2.36-.74l-8.99-6.23c-1.89-1.31-2.36-3.9-1.05-5.79,1.31-1.89,3.9-2.36,5.79-1.05l8.99,6.23c1.89,1.31,2.36,3.9,1.05,5.79-.81,1.17-2.11,1.79-3.42,1.79Z"/>
          <path class="cls-3" d="m1405.13,537.53c-1.36,0-2.69-.66-3.49-1.88-1.26-1.92-.72-4.5,1.21-5.76l17.98-11.76c1.92-1.26,4.5-.72,5.76,1.21,1.26,1.92.72,4.5-1.21,5.76l-17.98,11.76c-.7.46-1.49.68-2.27.68Z"/>
          <path class="cls-3" d="m1273.09,605.87c-17.46,0-35.24-4.67-46.03-14.02-1.74-1.5-1.92-4.13-.42-5.87,1.5-1.74,4.13-1.92,5.87-.42,16.77,14.53,62.1,17.17,79.07.2,1.62-1.63,4.26-1.62,5.88,0,1.62,1.62,1.62,4.26,0,5.88-9.48,9.48-26.76,14.22-44.37,14.22Z"/>
          <path class="cls-3" d="m1224.59,410.72c-.82,0-1.65-.24-2.37-.74-18.26-12.68-32-52.11-22.36-83.94.67-2.2,2.99-3.44,5.19-2.77,2.2.67,3.44,2.99,2.77,5.19-8.51,28.1,3.51,63.83,19.14,74.69,1.89,1.31,2.35,3.9,1.04,5.79-.81,1.16-2.1,1.79-3.42,1.79Z"/>
          <path class="cls-3" d="m1282.69,399.66c-.66,0-1.33-.16-1.96-.49-29.01-15.5-35.51-63.8-30.63-80.9.63-2.21,2.93-3.48,5.14-2.86,2.21.63,3.49,2.93,2.86,5.14-1.91,6.68-1.93,20.93,2.53,36.44,2.8,9.71,9.63,27.14,24.02,34.83,2.03,1.08,2.79,3.6,1.71,5.63-.75,1.4-2.19,2.2-3.67,2.2Z"/>
          <path class="cls-3" d="m1333.88,390.89c-.9,0-1.81-.29-2.58-.9-12.7-10.05-28.37-48.84-27.39-63.03.16-2.29,2.16-4.03,4.44-3.86,2.29.16,4.02,2.14,3.86,4.44-.88,12.7,14.54,48.24,24.25,55.94,1.8,1.43,2.11,4.04.68,5.84-.82,1.04-2.04,1.58-3.26,1.58Z"/>
          <g>
            <path class="cls-3" d="m1378.19,422.72c-1.33,0-2.63-.63-3.44-1.81-2.3-3.36-4.83-6.17-7.52-8.35-1.79-1.45-2.06-4.06-.62-5.85,1.45-1.79,4.07-2.06,5.85-.62,3.32,2.69,6.4,6.09,9.15,10.11,1.3,1.9.81,4.48-1.08,5.78-.72.49-1.54.73-2.35.73Z"/>
            <path class="cls-3" d="m1390.34,452.47c-1.88,0-3.59-1.29-4.04-3.2-1.28-5.38-2.82-10.38-4.58-14.88-.84-2.14.21-4.55,2.35-5.39,2.14-.84,4.55.21,5.39,2.35,1.91,4.85,3.57,10.23,4.93,15.99.53,2.23-.85,4.48-3.09,5.01-.32.08-.65.11-.97.11Z"/>
            <path class="cls-3" d="m1394.28,480.81c-2.23,0-4.08-1.77-4.16-4.02-.07-2.04-.29-6.31-1.03-12.04-.29-2.28,1.32-4.36,3.6-4.66,2.27-.3,4.36,1.32,4.66,3.6.58,4.5.97,9.05,1.09,12.82.08,2.3-1.72,4.22-4.02,4.3-.05,0-.09,0-.14,0Z"/>
          </g>
          <path class="cls-3" d="m1434.4,472.98c-.67,0-1.36-.16-1.99-.51-2.02-1.1-2.76-3.63-1.66-5.65,11.79-21.58,10.14-61.84-3.85-93.66-9.39-21.37-22.48-35.09-36.85-38.65-1.06-.26-1.97-.93-2.54-1.86-14.2-23.06-34.11-39.38-59.18-48.51-26.6-9.69-52.37-8.86-69.31-6.46-29.52,4.18-62.95,18.93-67.78,36.37-.34,1.22-1.21,2.22-2.37,2.71-23.43,10.04-33.51,26.81-37.83,39.11-5.12,14.56-4.34,28.98-1.45,36.21.85,2.13-.18,4.55-2.32,5.41-2.13.85-4.55-.18-5.41-2.32-3.57-8.92-4.54-25.39,1.32-42.06,4.77-13.56,15.69-31.93,40.66-43.24,6.82-18.43,37.36-35.25,74-40.44,17.88-2.53,45.11-3.4,73.32,6.87,26.36,9.6,47.39,26.6,62.54,50.56,16.26,4.76,30.69,19.92,40.8,42.93,15.17,34.51,16.65,76.99,3.53,101-.76,1.38-2.18,2.17-3.65,2.17Z"/>
          <path class="cls-3" d="m1216.29,714.14c-1.86,0-3.56-1.26-4.03-3.15-.56-2.23.8-4.49,3.03-5.04,2.74-.7,10.88-3.78,12.22-8.61,1.87-6.71,1.76-25.39,1.71-34.37,0-1.42-.02-2.68-.02-3.71,0-2.3,1.86-4.16,4.16-4.16s4.16,1.86,4.16,4.16c0,1.02,0,2.26.01,3.67.08,13.94,0,29.42-2.01,36.64-2.87,10.34-16.65,14.06-18.22,14.45-.34.08-.68.13-1.01.13Z"/>
          <path class="cls-3" d="m1356.02,714.14c-.33,0-.67-.04-1.01-.13-1.56-.39-15.34-4.11-18.22-14.45-1.94-6.98-2.1-28.92-2.01-49.46,0-1.55.01-2.82.01-3.76,0-2.3,1.86-4.16,4.16-4.16s4.16,1.86,4.16,4.16c0,.94,0,2.23-.01,3.79-.05,11.05-.19,40.39,1.71,47.2,1.34,4.83,9.48,7.91,12.23,8.61,2.22.57,3.57,2.83,3.01,5.05-.48,1.89-2.17,3.14-4.03,3.14Z"/>
          <path class="cls-3" d="m1524.33,844.64c-.09,0-.17,0-.26,0-2.29-.14-4.04-2.12-3.89-4.41,2.24-35.82-1.08-61.61-10.14-78.85-8.54-16.25-22.42-25.71-43.67-29.78-22.36-4.28-70.36-18.15-81.88-21.51-20.31,20.69-53.47,32.94-91.5,33.71-40.91.86-79.73-12.05-101.31-33.63-1.62-1.62-1.62-4.26,0-5.88,1.62-1.62,4.26-1.62,5.88,0,20.03,20.03,56.54,31.99,95.25,31.2,36.92-.75,68.76-12.75,87.34-32.92,1.07-1.16,2.72-1.62,4.23-1.17.59.17,58.96,17.33,83.53,22.04,47.02,9,65.13,44.09,60.55,117.32-.14,2.2-1.97,3.9-4.15,3.9Z"/>
          <path class="cls-3" d="m1456.46,1180.37c-33.62,0-93.54-14.23-96.34-14.9-1.37-.33-2.49-1.33-2.96-2.66-.47-1.33-.23-2.81.63-3.93,30.75-39.8,19.1-70.33,3.29-100.67-.69-1.33-.62-2.93.2-4.18.81-1.26,2.24-1.98,3.74-1.89l34.96,2.06c1.06-26.62,6.74-169.87,6.74-185.58,0-2.3,1.86-4.16,4.16-4.16s4.16,1.86,4.16,4.16c0,17.41-6.64,183.1-6.92,190.15-.04,1.12-.54,2.17-1.36,2.92-.83.75-1.92,1.14-3.04,1.07l-31.96-1.88c14.08,28.49,23.22,59.64-3.58,97.92,18.44,4.13,73.46,15.75,97.05,12.8,12.35-1.54,22.63-8.73,30.54-21.37,6.86-10.95,11.43-25.46,12.87-40.83,2.72-29.06,11.43-266.66,11.51-269.06,0-.04,0-.07,0-.11,2.24-35.82-1.08-61.61-10.14-78.85-8.54-16.25-22.42-25.71-43.67-29.78-24.96-4.78-81.91-21.52-84.32-22.23-2.2-.65-3.46-2.96-2.82-5.17.65-2.2,2.96-3.46,5.17-2.82.59.17,58.96,17.33,83.53,22.04,47.01,9,65.12,44.07,60.55,117.27-.38,10.53-8.8,240.24-11.54,269.48-1.56,16.65-6.57,32.44-14.1,44.47-9.17,14.65-21.81,23.36-36.56,25.21-2.9.36-6.21.53-9.82.53Z"/>
          <path class="cls-3" d="m1032.77,922.11c-.08,0-.17,0-.25,0-2.29-.14-4.04-2.1-3.91-4.4l4.61-77.93c3.12-79.91,18.78-107.12,67.01-116.35,24.57-4.7,82.95-21.87,83.53-22.04,2.2-.65,4.52.61,5.17,2.82.65,2.2-.61,4.52-2.82,5.17-2.41.71-59.35,17.45-84.32,22.23-39.03,7.47-56.99,24.92-60.26,108.59l-4.62,78.01c-.13,2.21-1.96,3.91-4.15,3.91Z"/>
          <path class="cls-3" d="m1445.47,1065.06s-.1,0-.15,0l-25.82-.92c-2.3-.08-4.09-2.01-4.01-4.31s2-4.1,4.31-4.01l25.82.92c2.3.08,4.09,2.01,4.01,4.31-.08,2.25-1.93,4.01-4.15,4.01Z"/>
          <path class="cls-3" d="m1230.13,1173.88c-1.48,0-2.9-.79-3.66-2.17-1.1-2.02-.36-4.54,1.66-5.64.86-.47,21.48-11.55,49.81-12.5,5.51-.18,11.98,1.16,19.48,2.71,12.77,2.64,28.66,5.93,43.6,1.6.44-.13.9-.18,1.36-.16l9.68.46c2.29.11,4.07,2.06,3.96,4.35-.11,2.29-2.06,4.08-4.35,3.96l-9.01-.43c-16.7,4.61-33.44,1.15-46.92-1.64-6.97-1.44-12.99-2.68-17.51-2.54-26.27.88-45.91,11.38-46.11,11.49-.63.34-1.31.5-1.98.5Z"/>
          <path class="cls-3" d="m1193.69,1081.66c-.67,0-1.34-.16-1.97-.5-2.02-1.09-2.78-3.61-1.69-5.63,2.92-5.41,24.63-33.98,57.44-39.03,33.08-5.09,78.59,8.1,104.62,23.1,1.99,1.15,2.67,3.69,1.53,5.68s-3.69,2.67-5.68,1.53c-25.15-14.49-69.13-26.72-99.2-22.09-29.05,4.47-48.93,30.2-51.38,34.75-.75,1.4-2.18,2.19-3.67,2.19Z"/>
          <path class="cls-3" d="m1207.53,1101.03c-1.16,0-2.31-.48-3.13-1.42-1.51-1.73-1.34-4.36.39-5.87,11.2-9.8,29.94-26.19,57.57-29.59,2.28-.28,4.36,1.34,4.64,3.62s-1.34,4.36-3.62,4.64c-25.09,3.08-42.63,18.42-53.1,27.59-.79.69-1.77,1.03-2.74,1.03Z"/>
          <path class="cls-3" d="m1216.29,1125.93c-1.16,0-2.31-.48-3.13-1.42-1.51-1.73-1.34-4.36.39-5.87,19.54-17.1,40.64-21.39,54.8-23.13,2.28-.28,4.36,1.34,4.64,3.62.28,2.28-1.34,4.36-3.62,4.64-26.99,3.32-41.08,13.04-50.34,21.14-.79.69-1.77,1.03-2.74,1.03Z"/>
          <path class="cls-3" d="m1225.52,1150.36c-1.16,0-2.31-.48-3.13-1.42-1.51-1.73-1.34-4.36.39-5.87,10.25-8.97,24.67-18.62,53.88-22.21,2.28-.28,4.36,1.34,4.64,3.62.28,2.28-1.34,4.36-3.62,4.64-26.97,3.31-40.11,12.08-49.41,20.21-.79.69-1.77,1.03-2.74,1.03Z"/>
          <path class="cls-3" d="m936.85,1172.5c-1.87,0-3.58-1.28-4.04-3.18l-54.87-225.49c-.3-1.24-.02-2.55.77-3.55.79-1,1.99-1.59,3.27-1.59h377.2c1.91,0,3.57,1.3,4.04,3.15l20.75,83c.56,2.23-.8,4.49-3.03,5.04-2.23.56-4.49-.8-5.04-3.03l-19.96-79.85h-368.66l53.62,220.35c.54,2.23-.83,4.48-3.06,5.03-.33.08-.66.12-.99.12Z"/>
          <path class="cls-3" d="m939.16,946.09c-.29,0-.58-.03-.88-.09-2.25-.48-3.68-2.69-3.2-4.94,4.3-20.07,14.63-31.62,32.52-36.35,19.2-5.08,55.06-8.83,79.53,23.17,1.4,1.82,1.05,4.44-.78,5.83-1.82,1.4-4.43,1.05-5.83-.78-21.53-28.16-53.6-24.73-70.79-20.18-14.91,3.95-22.84,12.94-26.51,30.05-.42,1.95-2.14,3.29-4.06,3.29Z"/>
          <path class="cls-3" d="m967.07,912.17c-1.88,0-3.58-1.28-4.04-3.19l-32.75-135.83c-.54-2.23.84-4.48,3.07-5.02l25.55-6.16c2.23-.54,4.48.84,5.02,3.07l32.75,135.83c.54,2.23-.84,4.48-3.07,5.02-2.24.54-4.48-.84-5.02-3.07l-31.78-131.78-17.46,4.21,31.78,131.78c.54,2.23-.84,4.48-3.07,5.02-.33.08-.66.12-.98.12Z"/>
          <path class="cls-3" d="m1106.09,929.03c-.1,0-.2,0-.3-.01-2.29-.16-4.02-2.15-3.86-4.44l5.07-71.94c.16-2.29,2.15-4.02,4.44-3.86,2.29.16,4.02,2.15,3.86,4.44l-5.07,71.94c-.15,2.19-1.98,3.87-4.15,3.87Z"/>
          <path class="cls-3" d="m322.64,671.72c-37.17,0-85.3-31.56-93.79-41.59-6.85-8.09-25.06-35.56-31.83-58.14-15.25-.95-28.06-6.52-37.19-16.22-8.76-9.31-13.58-21.92-13.58-35.53s6.61-20.72,12.15-24.59c10.2-7.11,23.47-7.17,31.49-4.22,2.16.79,3.26,3.19,2.47,5.34-.79,2.16-3.19,3.26-5.34,2.47-6.25-2.3-16.45-1.93-23.85,3.24-5.7,3.98-8.59,9.95-8.59,17.76,0,21.21,14.14,42.91,45.73,43.57,1.86.04,3.48,1.31,3.94,3.12,5.18,20.07,22.91,48.32,30.97,57.84,7,8.27,52.63,38.64,87.44,38.64,39.05,0,85.8-32.33,93.51-42.6,11.57-15.42,18.8-41.65,20.63-59.49.18-1.73,1.41-3.16,3.09-3.6,15.23-3.96,25.17-12.37,27.99-23.68,2.14-8.59-.35-17.96-6.2-23.33-4.27-3.92-9.68-5.03-15.25-3.13-1.29.44-2.71.22-3.81-.58-1.1-.81-1.73-2.1-1.7-3.46.01-.56,1.37-56.05.69-70.95-.1-2.29,1.67-4.24,3.97-4.34,2.29-.1,4.24,1.67,4.34,3.97.57,12.59-.24,51.87-.56,66.26,6.54-.66,12.87,1.45,17.94,6.11,8.15,7.48,11.54,19.84,8.64,31.47-4.44,17.82-20.4,25.63-31.19,28.93-3.19,26.04-13.18,49.14-21.94,60.81-8.58,11.43-57.76,45.93-100.16,45.93Z"/>
          <path class="cls-3" d="m342,552.75h-11.76c-2.3,0-4.16-1.86-4.16-4.16s1.86-4.16,4.16-4.16h7.6v-46.33c0-2.3,1.86-4.16,4.16-4.16s4.16,1.86,4.16,4.16v50.49c0,2.3-1.86,4.16-4.16,4.16Z"/>
          <path class="cls-3" d="m377.63,497.41c-1.18,0-2.35-.5-3.17-1.47-1.49-1.75-1.27-4.38.48-5.86,13.43-11.4,31.32-7.4,39.18-1.11,1.79,1.44,2.09,4.05.65,5.85-1.44,1.79-4.05,2.08-5.85.65-4.93-3.94-18.38-7.71-28.6.96-.78.66-1.74.99-2.69.99Z"/>
          <path class="cls-3" d="m247.59,497.41c-1.18,0-2.35-.5-3.17-1.47-1.49-1.75-1.27-4.38.48-5.86,13.43-11.4,31.32-7.4,39.18-1.11,1.79,1.44,2.08,4.05.65,5.85-1.44,1.79-4.05,2.08-5.85.65-4.93-3.94-18.38-7.71-28.6.96-.78.66-1.74.99-2.69.99Z"/>
          <path class="cls-3" d="m442.99,537.19c-1.32,0-2.62-.63-3.42-1.79-1.31-1.89-.84-4.48,1.05-5.79l8.99-6.23c1.89-1.31,4.48-.84,5.79,1.05,1.31,1.89.84,4.48-1.05,5.79l-8.99,6.23c-.72.5-1.55.74-2.36.74Z"/>
          <path class="cls-3" d="m190.52,537.53c-.78,0-1.57-.22-2.27-.68l-17.98-11.76c-1.92-1.26-2.46-3.84-1.21-5.76,1.26-1.92,3.84-2.46,5.76-1.21l17.98,11.76c1.92,1.26,2.46,3.84,1.21,5.76-.8,1.22-2.13,1.88-3.49,1.88Z"/>
          <path class="cls-3" d="m322.56,605.87c-17.61,0-34.89-4.75-44.37-14.22-1.62-1.62-1.62-4.26,0-5.88,1.62-1.62,4.26-1.62,5.88,0,14.45,14.45,59.38,16.86,79.07-.2,1.74-1.51,4.36-1.32,5.87.42,1.5,1.74,1.32,4.36-.42,5.87-10.79,9.35-28.57,14.02-46.03,14.02Z"/>
          <path class="cls-3" d="m168.16,476.2c-1.77,0-3.4-1.13-3.96-2.91-8.36-26.4-16.89-110.02,12.58-150.79,29.78-41.19,109.8-56.24,135.58-57.06,33.37-1.06,74.68,3.04,98.96,44.24,25.3,11.29,36.33,29.8,41.13,43.44,5.86,16.68,4.89,33.14,1.32,42.06-.85,2.13-3.27,3.17-5.41,2.32-2.13-.85-3.17-3.27-2.32-5.41,2.89-7.23,3.67-21.65-1.45-36.21-4.33-12.3-14.4-29.07-37.83-39.11-.83-.36-1.52-.97-1.97-1.76-21.98-38.46-60.8-42.24-92.17-41.25-14.46.46-40.32,4.79-65.47,13.44-21,7.22-49.08,20.04-63.63,40.18-27.36,37.84-19.14,118.96-11.4,143.41.69,2.19-.52,4.53-2.71,5.22-.42.13-.84.2-1.26.2Z"/>
          <path class="cls-3" d="m367.49,707.92c-1.03,0-2.07-.38-2.88-1.16-2.24-2.15-3.75-4.57-4.48-7.19-2.01-7.22-2.09-22.7-2.01-36.64,0-1.4.01-2.64.01-3.67,0-2.3,1.86-4.16,4.16-4.16s4.16,1.86,4.16,4.16c0,1.04,0,2.29-.02,3.71-.05,8.98-.16,27.66,1.71,34.37.32,1.16,1.07,2.31,2.22,3.41,1.66,1.59,1.72,4.22.13,5.88-.82.85-1.91,1.28-3,1.28Z"/>
          <path class="cls-3" d="m253.53,705.49c-.78,0-1.56-.22-2.26-.67-1.93-1.25-2.47-3.83-1.22-5.75.37-.56.63-1.14.8-1.72,1.89-6.81,1.76-36.15,1.71-47.2,0-1.56-.01-2.85-.01-3.79,0-2.3,1.86-4.16,4.16-4.16s4.16,1.86,4.16,4.16c0,.93,0,2.21.01,3.76.09,20.54-.07,42.49-2.01,49.46-.39,1.4-1.01,2.75-1.84,4.03-.8,1.23-2.13,1.89-3.49,1.89Z"/>
          <path class="cls-3" d="m142.01,1180.4c-5.25,0-9.56-.17-12.64-.56-32.96-4.12-47.89-40.11-50.66-69.68-2.74-29.24-11.16-258.92-11.54-269.48-4.56-73.19,13.55-108.27,60.55-117.27,15.29-2.93,43.23-10.54,63.98-16.41,2.21-.62,4.51.66,5.14,2.87.63,2.21-.66,4.51-2.87,5.14-20.9,5.92-49.09,13.59-64.68,16.58-21.25,4.07-35.13,13.53-43.67,29.78-9.06,17.23-12.38,43.03-10.14,78.85,0,.04,0,.07,0,.11.09,2.4,8.79,240,11.51,269.06,1.44,15.38,6.01,29.88,12.87,40.83,7.91,12.63,18.19,19.82,30.54,21.37,25.38,3.17,142.9-9.25,170.67-12.27-8.77-19.31-9.81-38.34-3.08-56.63,5.05-13.72,13.48-24.17,20.63-31.18l-127.24-8.77c-2.12-.15-3.79-1.86-3.87-3.98-.28-7.04-6.92-172.74-6.92-190.15,0-2.3,1.86-4.16,4.16-4.16s4.16,1.86,4.16,4.16c0,15.81,5.76,160.84,6.76,186.09l133.46,9.2c1.72.12,3.18,1.28,3.69,2.93.51,1.64-.05,3.43-1.41,4.49-11.21,8.81-45.8,41.29-20.33,89.55.64,1.22.64,2.67,0,3.89-.64,1.22-1.85,2.03-3.21,2.19-5.43.61-120.63,13.46-165.87,13.46Z"/>
          <path class="cls-3" d="m558.27,844.18c-2.22,0-4.07-1.76-4.15-4-3.27-83.67-21.23-101.12-60.26-108.59-17.64-3.38-51.76-12.88-70.53-18.24-2.21-.63-3.49-2.93-2.86-5.14.63-2.21,2.93-3.49,5.14-2.86,18.64,5.33,52.49,14.76,69.81,18.07,48.22,9.23,63.88,36.44,67.01,116.44.09,2.3-1.7,4.23-3.99,4.32-.06,0-.11,0-.17,0Z"/>
          <path class="cls-3" d="m150.17,1065.06c-2.23,0-4.07-1.77-4.15-4.01-.08-2.3,1.71-4.22,4.01-4.31l25.82-.92c2.29-.1,4.22,1.71,4.31,4.01.08,2.3-1.71,4.22-4.01,4.31l-25.82.92c-.05,0-.1,0-.15,0Z"/>
          <path class="cls-3" d="m451.26,1198.19c-.91,0-1.82-.3-2.59-.9-.17-.14-17.72-13.85-43.45-19.22-4.43-.92-10.57-.73-17.69-.5-13.76.44-30.85.98-46.51-6.43l-8.95-1.12c-2.28-.29-3.9-2.37-3.61-4.65.29-2.28,2.37-3.9,4.64-3.61l9.62,1.21c.45.06.9.19,1.31.39,13.98,6.83,30.2,6.31,43.23,5.9,7.65-.24,14.26-.45,19.65.67,27.75,5.79,46.16,20.24,46.93,20.85,1.8,1.43,2.1,4.05.67,5.85-.82,1.03-2.03,1.57-3.26,1.57Z"/>
          <path class="cls-3" d="m502.97,1113.58c-1.74,0-3.37-1.1-3.95-2.85-1.63-4.9-16.81-33.66-44.66-43.05-28.83-9.72-74.26-5.22-101.52,4.74-2.16.79-4.55-.32-5.34-2.48s.32-4.55,2.48-5.34c28.21-10.31,75.31-15.5,107.03-4.81,31.46,10.6,47.95,42.47,49.9,48.3.73,2.18-.45,4.54-2.63,5.26-.44.15-.88.21-1.32.21Z"/>
          <path class="cls-3" d="m486.02,1130.28c-1.21,0-2.42-.53-3.24-1.55-8.75-10.83-23.39-28.95-47.58-36.29-2.2-.67-3.44-2.99-2.77-5.19.67-2.2,2.99-3.44,5.19-2.77,26.64,8.08,42.29,27.45,51.64,39.02,1.44,1.79,1.17,4.41-.62,5.85-.77.62-1.69.92-2.61.92Z"/>
          <path class="cls-3" d="m473.12,1153.31c-1.21,0-2.42-.53-3.24-1.55-7.73-9.57-19.94-21.56-45.96-29.46-2.2-.67-3.44-2.99-2.77-5.19.67-2.2,2.99-3.44,5.19-2.77,28.51,8.65,42.2,22.51,50.02,32.19,1.44,1.79,1.17,4.41-.62,5.85-.77.62-1.69.92-2.61.92Z"/>
          <path class="cls-3" d="m459.84,1175.81c-1.21,0-2.42-.53-3.24-1.55-7.77-9.61-19.21-20.5-45.21-28.39-2.2-.67-3.44-2.99-2.77-5.19.67-2.2,2.99-3.44,5.19-2.77,28.16,8.54,40.71,20.53,49.27,31.12,1.44,1.79,1.17,4.41-.62,5.85-.77.62-1.69.92-2.61.92Z"/>
          <path class="cls-3" d="m521.37,1173.12c-2.17,0-3.99-1.68-4.15-3.87l-22.13-318.34c-.16-2.29,1.57-4.28,3.86-4.44,2.29-.16,4.28,1.57,4.44,3.86l22.13,318.34c.16,2.29-1.57,4.28-3.86,4.44-.1,0-.2.01-.29.01Z"/>
          <path class="cls-3" d="m244.71,784.69c-.79,0-1.57-.22-2.26-.67-34.5-22.3-52.67-47.76-54-75.69-.08-1.65.83-3.19,2.31-3.93l43.81-21.67c2.06-1.02,4.55-.18,5.57,1.88,1.02,2.06.18,4.55-1.88,5.57l-41.31,20.44c2.18,23.47,18.22,45.29,47.74,64.92l55.21-36.94c-12.98-5.51-39.88-18.71-59.2-40.13-1.54-1.71-1.4-4.34.3-5.88,1.71-1.54,4.34-1.4,5.88.3,24.37,27.02,62.91,40.69,63.3,40.82,1.49.52,2.56,1.84,2.76,3.4.2,1.56-.5,3.11-1.81,3.98l-64.1,42.88c-.7.47-1.51.7-2.31.7Z"/>
          <path class="cls-3" d="m372.9,784.69c-.81,0-1.61-.23-2.31-.7l-64.1-42.88c-1.32-.88-2.02-2.43-1.81-4,.21-1.57,1.28-2.89,2.78-3.4.42-.14,42.46-14.7,63.11-40.62,1.43-1.8,4.05-2.09,5.85-.66,1.8,1.43,2.09,4.05.66,5.85-16.82,21.11-45.57,34.75-59.28,40.38l55.13,36.88c29.56-19.66,45.61-41.51,47.75-65.03l-41-22.24c-2.02-1.1-2.77-3.62-1.67-5.64,1.1-2.02,3.62-2.77,5.64-1.67l43.35,23.52c1.4.76,2.25,2.26,2.17,3.85-1.33,27.93-19.5,53.4-54,75.69-.69.44-1.47.67-2.26.67Z"/>
          <path class="cls-3" d="m551.96,1094.81c-17.84,0-34.53-7.61-41.1-18.91-1.15-1.99-.48-4.53,1.51-5.69,1.99-1.16,4.53-.48,5.69,1.51,5.19,8.92,20.57,15.26,35.77,14.74,15.4-.53,27.59-7.66,33.45-19.56,15.19-30.82,32.17-171.09,32.34-172.5.27-2.28,2.35-3.91,4.63-3.63,2.28.27,3.91,2.35,3.63,4.63-.7,5.83-17.33,143.1-33.14,175.19-7.26,14.74-22.07,23.56-40.63,24.19-.72.02-1.44.04-2.15.04Z"/>
          <path class="cls-3" d="m521.85,967.3c-.14,0-.29,0-.43-.02-2.29-.23-3.95-2.28-3.71-4.56,1.26-12.31,14.71-54.64,18.8-67.31,9.93-30.79,19.81-58.47,24.01-67.31.99-2.07,3.47-2.96,5.54-1.97,2.08.99,2.96,3.47,1.97,5.54-11.06,23.29-40.59,117.77-42.04,131.9-.22,2.14-2.03,3.74-4.13,3.74Z"/>
          <path class="cls-3" d="m627.69,886.89c-15.76,0-31.01-4.85-42.52-14.12-10.37-8.35-18.24-21.09-22.16-35.89-4.27-16.1-3.78-33.92,1.41-51.53,6.24-21.16,16.16-38.23,23.38-48.83,8.82-12.95,18.55-23.54,26.7-29.06,1.9-1.29,4.49-.79,5.78,1.11,1.29,1.9.79,4.49-1.11,5.78-13.04,8.83-36.17,37.43-46.76,73.36-10.55,35.79,1.43,65.26,17.99,78.58,15.77,12.69,39.71,15.87,60.98,8.09l3.62-1.32c23.39-8.52,94.57-34.46,105.29-47.25,1.48-1.76,4.1-1.99,5.86-.51,1.76,1.48,1.99,4.1.51,5.86-10.77,12.84-63.81,33.32-108.82,49.72l-3.61,1.32c-8.63,3.15-17.67,4.69-26.54,4.69Z"/>
          <path class="cls-3" d="m613.14,765.33c-1.18,0-2.34-.51-3.14-1.43-1.09-1.26-1.33-3.04-.61-4.54,9.13-18.89,18.82-40.44,19.41-44.21-.05-2.13,1.54-3.98,3.7-4.22,2.27-.25,4.34,1.39,4.59,3.68.17,1.58.41,3.73-10.09,26.8-2.17,4.77-4.37,9.47-6.16,13.26,20.54-5.45,73.29-17.25,126.92-11.45,2.28.25,3.94,2.3,3.69,4.58-.25,2.28-2.29,3.93-4.58,3.69-66.53-7.19-131.82,13.45-132.47,13.66-.42.13-.85.2-1.27.2Zm15.69-49.82s0,0,0,0c0,0,0,0,0,0Z"/>
          <path class="cls-3" d="m707.22,828.04c-1.55,0-3.03-.87-3.75-2.35-1-2.07-.13-4.56,1.94-5.55,13.36-6.45,44.67-15.65,60.5-15.17,2.3.07,4.1,1.99,4.03,4.29-.07,2.3-2.02,4.08-4.29,4.03-13.37-.44-42.81,7.67-56.62,14.34-.58.28-1.2.42-1.81.42Z"/>
          <path class="cls-3" d="m697.53,803.14c-1.55,0-3.03-.87-3.75-2.35-1-2.07-.13-4.56,1.94-5.55,14.57-7.03,52.97-12.85,67.88-12.4,2.3.07,4.1,1.99,4.03,4.29-.07,2.3-2,4.08-4.29,4.03-14.84-.46-51.76,5.67-64,11.58-.58.28-1.2.42-1.81.42Z"/>
          <path class="cls-3" d="m695.69,778.7c-1.55,0-3.03-.87-3.75-2.35-1-2.07-.13-4.56,1.94-5.56,13.95-6.73,52.08-10.57,67.42-10.1,2.3.07,4.1,1.99,4.03,4.29-.07,2.3-2,4.06-4.29,4.03-14.25-.45-50.89,3.16-63.54,9.27-.58.28-1.2.41-1.81.41Z"/>
          <path class="cls-3" d="m615.45,834.03c-1.28,0-2.55-.59-3.36-1.71-1.35-1.86-.95-4.46.91-5.81,10.9-7.96,26.43-10.4,37.54-11.05,14.08-.82,29.13.79,41.27,4.43,2.2.66,3.45,2.98,2.79,5.18-.66,2.2-2.98,3.45-5.18,2.79-28.08-8.42-58.99-3.77-71.52,5.37-.74.54-1.6.8-2.45.8Z"/>
          <path class="cls-3" d="m215.59,418.3c-5.09,0-9.69-.39-13.68-1.21-2.25-.46-3.7-2.67-3.23-4.92.46-2.25,2.67-3.7,4.92-3.23,18.6,3.84,56.39-3.2,96.28-17.93,39.79-14.69,72.01-33.42,82.08-47.72,1.32-1.88,3.92-2.33,5.8-1.01,1.88,1.32,2.33,3.92,1.01,5.8-21.92,31.13-122.1,70.22-173.16,70.22Z"/>
          <path class="cls-3" d="m439.3,384.44c-1.29,0-2.56-.6-3.38-1.72-5.21-7.21-24.74-17.7-33.71-18.11-2.3-.1-4.07-2.05-3.97-4.34.1-2.3,2.05-4.07,4.34-3.97,11.61.53,33.33,12.21,40.07,21.55,1.35,1.86.93,4.46-.94,5.81-.74.53-1.59.79-2.43.79Z"/>
          <path class="cls-3" d="m448.53,419.02c-1.46,0-2.87-.77-3.63-2.13-6.22-11.12-18.34-21.09-25.75-23.43-2.19-.69-3.41-3.03-2.71-5.22.69-2.19,3.03-3.41,5.22-2.71,10.2,3.22,23.88,15.46,30.51,27.3,1.12,2,.41,4.54-1.6,5.66-.64.36-1.34.53-2.03.53Z"/>
          <path class="cls-3" d="m181.65,388.67c-1.91,0-3.44-.04-4.47-.09-2.29-.11-4.06-2.07-3.95-4.36.11-2.29,2.06-4.05,4.36-3.95,8.91.45,38.43-.58,49.68-7.67,1.94-1.22,4.51-.64,5.74,1.3,1.22,1.94.64,4.51-1.3,5.74-12.14,7.64-38.28,9.02-50.06,9.02Z"/>
          <path class="cls-3" d="m189.5,359.12c-.77,0-1.49-.02-2.16-.05-2.3-.1-4.07-2.05-3.97-4.34.1-2.3,2.06-4.07,4.34-3.97,10.17.47,29.85-2.96,36.84-7.23,1.96-1.2,4.52-.58,5.72,1.38,1.2,1.96.58,4.52-1.38,5.72-8.84,5.4-28.47,8.49-39.39,8.49Z"/>
          <path class="cls-3" d="m306.5,520.47h-94.99c-2.3,0-4.16-1.86-4.16-4.16v-37.35c0-2.3,1.86-4.16,4.16-4.16s4.16,1.86,4.16,4.16v33.19h86.77l1.18-48.4h-81.97c-2.3,0-4.16-1.86-4.16-4.16s1.86-4.16,4.16-4.16h86.23c1.12,0,2.19.45,2.98,1.25.78.8,1.21,1.89,1.18,3.01l-1.38,56.72c-.06,2.26-1.9,4.06-4.16,4.06Z"/>
          <path class="cls-3" d="m456.82,520.47h-94.99c-2.3,0-4.16-1.86-4.16-4.16v-33.19h-35.04c-2.3,0-4.16-1.86-4.16-4.16s1.86-4.16,4.16-4.16h39.2c2.3,0,4.16,1.86,4.16,4.16v33.19h86.77l1.18-48.4h-81.97c-2.3,0-4.16-1.86-4.16-4.16s1.86-4.16,4.16-4.16h86.23c1.12,0,2.19.45,2.98,1.25.78.8,1.21,1.89,1.18,3.01l-1.38,56.72c-.06,2.26-1.9,4.06-4.16,4.06Z"/>
          <rect class="cls-4" width="1526.72" height="1168.96"/>
        </g>
      </g>
    </g>
  </g>
</svg>